<svg viewBox="0 0 150 150" width="100%" xmlns="http://www.w3.org/2000/svg">
 <!-- Created with Method Draw - http://github.com/duopixel/Method-Draw/ -->
 <defs>
	<style><![CDATA[
		.sprite { display: none; }
		.sprite:target { display: inline; }
	]]></style>
 </defs>

  <g class="sprite" id="g1">
    <path id="svg_2" d="m88.611772,110.799994l0.094352,-0.055921c0,0.038438 0.005242,0.073391 0.008741,0.108343c-0.03495,-0.01747 -0.071642,-0.034952 -0.103093,-0.052422m-0.216657,0.125813l0.106579,-0.062907c0.001743,0.041938 0.005242,0.080376 0.008741,0.120571c-0.038435,-0.019226 -0.078627,-0.036695 -0.11532,-0.057664m19.102854,-1.497529c-1.775227,-0.651777 -4.062393,0.057664 -6.713,0.878948c-3.793319,1.177754 -8.089837,2.511018 -12.18718,0.248127l-0.311009,-0.17125l-0.003499,0.354727c-0.026209,2.488306 1.156694,4.45762 3.426393,5.696538c3.574906,1.953601 9.173146,1.640811 12.739311,-0.707698c2.285424,-1.504514 3.415909,-3.678287 3.187013,-6.1194l-0.013982,-0.132798l-0.12406,-0.04718l0.000013,-0.000013l0,-0.000001zm-56.924181,21.328803c-0.090853,-0.040195 -0.18172,-0.082132 -0.272573,-0.122314c0.096095,-0.01747 0.193947,-0.033196 0.288299,-0.054165l-0.015725,0.176492l0,-0.000013l-0.000001,0zm-0.019224,0.223672c-0.089111,-0.038438 -0.179964,-0.080376 -0.270831,-0.122314c0.096095,-0.019226 0.190448,-0.036695 0.286556,-0.059407l-0.015725,0.181734l0,-0.000013zm0.761804,-0.139797l-0.595822,-0.249883c-9.588991,-4.043486 -17.921707,-11.414031 -23.46403,-20.755647c-5.923231,-9.986407 -8.163222,-21.213475 -6.47362,-32.47024l0.008741,-0.045437l-0.013982,-0.043681c-0.291798,-1.027473 -1.116503,-1.452092 -2.460146,-1.263372l-0.11532,0.015727l-0.048919,0.108343c-2.975598,6.832341 -3.583647,14.872146 -1.759501,23.247452c1.665149,7.639641 5.276747,15.069606 10.170831,20.923397c7.272116,8.700323 16.064367,12.595284 24.122753,10.681878l0.629016,-0.148525l0,-0.000013l-0.000001,0.000001zm-0.599308,7.779437l0.122304,-0.101345c0.02271,0.068149 0.048919,0.134554 0.073385,0.200947c-0.064644,-0.033196 -0.132788,-0.066406 -0.195689,-0.099602m-0.176478,0.145039l0.127546,-0.103101c0.020967,0.069892 0.048919,0.132798 0.071642,0.202703c-0.068143,-0.033196 -0.136287,-0.06465 -0.199188,-0.099602m6.971591,-12.476456l0.012226,-0.015727c0,0.003499 0,0.008741 0.003499,0.012227c-0.003499,0.001743 -0.008741,0.001743 -0.015725,0.003499m-0.139786,0.246384l0.008741,-0.012227c0,0.003499 0.003499,0.006985 0.005242,0.010484c-0.005242,0.001743 -0.008741,0.001743 -0.013982,0.001743m51.308459,-37.908153l-0.041934,-0.143283c0.062902,0.010484 0.122304,0.015727 0.185206,0.024468c-0.048919,0.038438 -0.099594,0.07689 -0.143271,0.118828m-0.110078,-0.366955c0.064644,0.012227 0.131045,0.019226 0.193947,0.027954c-0.050675,0.040195 -0.103093,0.07689 -0.148513,0.118828l-0.045433,-0.146782l-0.000001,0zm6.803853,-15.354429l0.054161,-0.050679c0.003499,0.022712 0.008741,0.041938 0.012226,0.062907c-0.02271,-0.005242 -0.043677,-0.006985 -0.0664,-0.012227m-0.197445,0.181734l0.0664,-0.059407c0.003499,0.024468 0.006985,0.04718 0.012226,0.071648c-0.026209,-0.003499 -0.052418,-0.006985 -0.078627,-0.012227m3.580148,-26.855834l-0.059403,-0.085618c0.031451,-0.001743 0.062902,-0.003499 0.094352,-0.005242c-0.010484,0.027954 -0.02271,0.057664 -0.03495,0.090861m-0.145027,-0.206189l-0.059403,-0.082132c0.03495,0 0.062902,-0.005242 0.096095,-0.008741c-0.012226,0.031453 -0.026209,0.059407 -0.036693,0.090861m24.589273,25.58722l-0.108335,-0.101345l-0.132788,0.066406c-0.366926,0.18522 -0.691917,0.387923 -0.99944,0.597612c1.334916,-1.703718 2.516063,-3.332302 3.494536,-4.742456c5.210347,-7.5016 5.697834,-16.553151 1.299966,-24.213761c-3.571407,-6.224245 -9.564538,-9.956697 -15.265858,-9.507623c-5.591255,0.438602 -10.254699,4.829817 -13.125462,12.368113l-0.11532,0.295307l0.316251,-0.008741c3.774094,-0.111829 5.986133,-1.829531 8.123044,-3.487812c2.682058,-2.084656 5.222573,-4.050484 10.689769,-3.206489c-0.017468,-0.019226 -0.033194,-0.040195 -0.050675,-0.059407l0.127546,0.069892c-0.026209,-0.003499 -0.052418,-0.005242 -0.076884,-0.010484c5.830622,6.793902 6.760176,16.028931 2.362308,23.546258c-2.164862,3.704498 -5.423518,6.568487 -9.419511,8.277447c-4.392627,1.878454 -9.597732,2.285603 -15.057942,1.177754l-0.290042,-0.059407l0.036693,0.291821c0.171236,1.42938 0.630759,2.385205 1.406545,2.926895c1.362867,0.952339 3.43512,0.464814 5.834121,-0.101345c2.27494,-0.536448 4.838179,-1.128818 7.114862,-0.489268c0.036693,-0.06465 0.08037,-0.129312 0.117062,-0.193962c0.017468,0.005242 0.033194,0.008741 0.050675,0.013984l0.073385,0.183477c-0.010484,0.01747 -0.024466,0.031453 -0.033194,0.048923c-0.068143,-0.01747 -0.13803,-0.033196 -0.207929,-0.052422c-2.407728,4.080181 -7.081669,6.042523 -11.612325,7.934961c-3.342524,1.397927 -6.800355,2.844776 -9.356609,5.135621l-0.326734,0.293564l0.435069,0.073391c8.088094,1.329778 15.840713,-0.704199 23.037701,-6.044266c2.940649,-2.182502 5.53184,-4.738957 7.775329,-7.283171c-0.992443,2.334526 -0.840431,5.142607 -0.686676,7.900008c0.125803,2.264634 0.244622,4.405198 -0.234138,6.280166c-2.089734,8.176102 -6.976833,15.794774 -14.13363,22.033002c-6.581955,5.734976 -14.953106,10.115719 -23.572365,12.333174l-0.071642,0.019226l-0.045433,0.061163c-4.078119,5.469367 -11.21919,11.826422 -22.081951,11.048833c-4.357677,-0.311033 -7.654768,-2.739932 -10.84528,-5.091928c-3.373975,-2.48655 -6.564474,-4.836815 -10.380502,-3.809343l-0.209672,0.055921l0.059403,0.207945c3.365234,11.765259 17.233288,13.182411 30.645293,14.554114l0.075128,0.006985c0.104836,-0.059407 0.202687,-0.118828 0.307523,-0.179978c0.092609,0.008741 0.183463,0.019226 0.277815,0.026211l0.012226,0.04718c-0.08037,0.048923 -0.164239,0.09436 -0.242866,0.145039l-0.354699,-0.038438c-9.872048,5.799626 -28.059343,2.240166 -37.097946,-2.558198l-0.449052,-0.237642l0.14677,0.485782c1.008168,3.320061 3.251658,5.869531 6.665824,7.581977c8.065384,4.041743 21.933425,2.675269 31.466512,-0.763619c6.922672,-2.497034 11.199979,-7.339092 15.339243,-12.023883c2.306391,-2.612363 4.486979,-5.0797 6.985574,-6.933699c3.169545,-2.357251 6.676307,-4.614887 10.067751,-6.797401c14.179063,-9.130184 28.842114,-18.571402 26.76112,-39.050954c-0.324991,-3.180278 -2.142152,-6.813128 -4.520173,-9.041067m-35.934267,11.466453c0.024466,-0.024468 0.047176,-0.050679 0.068143,-0.07689l0.027952,0.103101c-0.031451,-0.008741 -0.061159,-0.01747 -0.096095,-0.026211m0.001743,-0.321518l0.031451,0.110086c-0.033194,-0.010484 -0.0664,-0.019226 -0.101337,-0.02971c0.024466,-0.026211 0.045433,-0.052422 0.069886,-0.080376m-3.108386,18.96631c0.024466,-0.027954 0.040191,-0.057664 0.062902,-0.087375c0.015725,0.033196 0.033194,0.068149 0.047176,0.097859l-0.110078,-0.010484zm-0.242866,-0.019226c0.02271,-0.02971 0.040191,-0.057664 0.061159,-0.087375c0.015725,0.031453 0.029708,0.06465 0.047176,0.096103l-0.108335,-0.008741l0,0.000013zm-4.383886,1.055427l0.003499,0.146782c-0.055917,-0.026211 -0.113577,-0.050679 -0.16948,-0.075134c0.055917,-0.022712 0.110078,-0.045437 0.165995,-0.071648m0.010484,0.379182l-0.16948,-0.073391c0.055917,-0.027954 0.111821,-0.048923 0.165995,-0.07689l0.003499,0.150281l-0.000013,0l-0.000001,0zm7.939581,-20.439371c-1.860838,-0.552175 -3.824769,-1.037957 -5.724043,-1.508013c-5.579016,-1.380444 -11.336266,-2.818565 -15.129571,-6.070477c-0.064644,0.040195 -0.125803,0.083875 -0.192204,0.12407c-0.017468,-0.015727 -0.040191,-0.031453 -0.059403,-0.04718l0.02271,-0.179978c0.017468,-0.012227 0.033194,-0.024468 0.050675,-0.034952c0.05766,0.045437 0.122304,0.087375 0.178221,0.13804c1.63894,-1.044943 2.327358,-3.234443 2.075752,-6.71177l0,0.033196c0.055917,-0.707698 -0.515439,-1.371716 -1.448479,-1.694976c-0.801995,-0.276094 -1.815405,-0.244641 -2.278439,0.447331l-0.013982,0.019226l-0.008741,0.024468c-2.461902,6.606926 -9.057827,9.290937 -15.435352,11.889329c-4.490478,1.827788 -9.138196,3.720225 -12.353174,6.965152l-0.008741,0.010484l-0.010484,0.012227c-1.497411,1.993782 -1.072826,5.972619 -0.113577,7.948931c0.40886,0.838753 0.891106,1.286084 1.392575,1.298325l0.017468,0l0.017468,-0.003499c3.875431,-0.539947 5.731028,-3.136584 7.523723,-5.645859c2.229507,-3.115615 4.340209,-6.054751 10.05901,-5.502576c-0.001743,-0.062907 -0.006985,-0.127556 -0.010484,-0.190463l0.190448,0.204446c-0.062902,-0.006985 -0.118818,-0.006985 -0.179964,-0.013984c0.213171,7.450921 4.350692,14.821467 10.349052,18.387924c4.310501,2.566939 9.047343,2.755659 13.333391,0.534705l0.393135,-0.204446l-0.405361,-0.176492l-1.251047,-0.541691c-6.166097,-2.663042 -11.99149,-5.181045 -13.090512,-12.611011c-0.005242,0.015727 -0.010484,0.026211 -0.015725,0.041938l0.005242,-0.089118c0.003499,0.01747 0.008741,0.031453 0.010484,0.04718c0.241123,-0.772348 0.69366,-0.802058 1.313948,-0.83701c0.223654,-0.012227 0.459535,-0.02971 0.695416,-0.080376c-0.005242,0 -0.010484,-0.001743 -0.019224,-0.001743l0.068143,-0.005242c-0.017468,0.003499 -0.033194,0.005242 -0.048919,0.006985c2.909198,0.249883 4.266823,1.999024 5.699577,3.85128c1.331417,1.717701 2.706511,3.49481 5.400795,3.938642l0.02271,0.003499l0.020967,0c0.368669,-0.019226 0.611547,-0.148525 0.723368,-0.382681c0.293541,-0.616838 -0.440311,-1.682749 -1.666892,-3.37074c-0.981959,-1.35249 -2.201555,-3.035239 -1.906271,-3.707984c0.076884,-0.183477 0.288299,-0.293564 0.637756,-0.333758c1.942964,-0.12407 3.795062,4.389472 5.425261,8.37355c0.739093,1.80332 1.437995,3.507038 2.159621,4.876997l0.152012,0.291821l0.200931,-0.26211c2.369293,-3.085918 1.874821,-6.238228 1.396061,-9.285694c-0.525923,-3.337544 -1.022151,-6.489854 1.930724,-9.629937l0.234138,-0.248127l-0.330233,-0.097859l0.000039,0l0.000001,0zm-52.187339,-15.45753l-0.020967,-0.034952c-0.770544,-1.342005 -2.299406,-1.355989 -3.548697,-1.219692l-0.024466,0.003499l-0.029708,0.010484c-0.971475,0.379182 -2.900457,2.792354 -1.899274,6.516065l0.045433,0.176492l0.18172,-0.022712l0.503213,-0.059407c1.177662,-0.134554 1.196873,-0.139797 2.12817,-0.436846l1.041375,-0.328516l0.033194,-0.010484c0,0 0.027952,-0.019226 0.027952,-0.019226c1.995382,-1.408411 1.921997,-1.943116 1.570796,-4.510042l-0.003499,-0.022712l-0.005242,-0.041938l0,-0.000013zm56.607917,1.392684l0.165995,-0.019226l0.017468,-0.167751c0.209672,-1.934375 -0.054161,-3.237942 -0.812479,-3.987578c-0.60455,-0.604597 -1.535847,-0.838753 -2.762427,-0.698957l-0.165995,0.019226l-0.019224,0.167751c-0.207929,1.934375 0.05766,3.237942 0.812479,3.989321c0.606306,0.602854 1.53759,0.83701 2.76417,0.697214m22.038261,-9.065522c0.356442,1.396171 1.396061,2.409673 2.585949,2.526745c0.960992,0.09436 1.80842,-0.419377 2.262714,-1.373459l0.008741,-0.019226l0.005242,-0.019226c0.104836,-0.405393 0.213171,-0.810799 0.31975,-1.202209c0.601064,-2.212212 1.219596,-4.499558 0.800252,-7.786423c-0.158997,-0.88419 -0.7059,-1.518497 -1.504396,-1.749155c-0.800252,-0.2324 -1.705327,-0.019226 -2.201555,0.518979c-2.030319,1.915149 -2.802619,4.973113 -2.280182,9.079505l0,0.012227l0.003499,0.012227l-0.000013,0.000013l-0.000001,0.000002zm-3.802046,-11.384334c-0.601064,-0.197461 -1.771728,-0.153767 -2.867263,2.338025l-0.005242,0.015727l-0.003499,0.015727c-0.368669,1.397927 -0.838688,2.727691 -1.294724,4.01029c-0.978473,2.771385 -1.993626,5.635374 -2.054785,9.402779l0,0.020969l0.003499,0.01747c0.211415,1.231919 0.93304,1.98854 2.042558,2.133579c1.467703,0.190463 3.340768,-0.800315 3.926107,-2.081157c1.270258,-3.290364 2.025077,-7.059512 2.245232,-11.211341l-0.003499,0.034952c0.363427,-1.649553 -0.536406,-4.221721 -1.988384,-4.697019m-32.607481,15.714398c0.024466,-0.013984 0.045433,-0.027954 0.071642,-0.041938c0.001743,0.027954 0.005242,0.052422 0.010484,0.082132l-0.082126,-0.040195l0,0.000001zm-0.225397,-0.117072c0.024466,-0.010484 0.047176,-0.026211 0.071642,-0.038438c0.001743,0.027954 0.003499,0.052422 0.008741,0.080376l-0.08037,-0.041938l-0.000013,0zm-9.723535,-1.972813l-0.071642,-0.087375c0.036693,-0.006985 0.071642,-0.015727 0.110078,-0.019226c-0.013982,0.034952 -0.026209,0.069892 -0.038435,0.106587m-0.157254,-0.18872l-0.071642,-0.085618c0.038435,-0.005242 0.071642,-0.012227 0.106579,-0.019226c-0.008741,0.033196 -0.02271,0.069892 -0.03495,0.104844m23.186214,-8.934466l0.001743,0.027954c-0.006985,-0.005242 -0.010484,-0.008741 -0.013982,-0.012227l0.012226,-0.015727l0.000013,0zm0.010484,0.293564l0.001743,0.013984c-0.005242,-0.001743 -0.006985,-0.003499 -0.010484,-0.006985c0.003499,-0.001743 0.005242,-0.005242 0.008741,-0.006985m-0.609791,0.927871l0.901589,-0.924372l0.155511,-0.159009c0,0 -0.165995,-0.146782 -0.165995,-0.146782c-4.088602,-3.622366 -8.469002,-3.414421 -11.42362,-2.603635c-5.449727,1.495772 -10.623381,6.378025 -12.300756,11.60625l-0.101337,0.318032l0.331976,-0.043681c3.239431,-0.424619 5.374586,-1.990296 7.439854,-3.505294c1.602247,-1.174255 3.260398,-2.37822 5.425261,-3.029997c0.054161,-0.087375 0.108335,-0.178235 0.164239,-0.267353c0.071642,-0.020969 0.139786,-0.043681 0.213171,-0.062907l0.045433,0.055921c-0.036693,0.061163 -0.071642,0.120571 -0.106579,0.181734c-0.106579,0.031453 -0.213171,0.061163 -0.316251,0.092617c-0.318007,0.518979 -0.663965,1.010003 -1.016909,1.481802c-1.280742,1.715945 -2.608672,3.493054 -2.063525,7.10145l0.043677,0.291821l0.26209,-0.134554c5.018143,-2.584409 8.823689,-6.482869 12.512171,-10.252017m9.449218,-6.671588l0.003499,0.001743l-0.003499,0l0,-0.001743zm0.167738,0.235899l0,0.003499l0,-0.001743l0,-0.001743l0,-0.000013zm-5.682109,5.504319l0.075128,0.085618l0.113577,-0.01747c3.307574,-0.504995 5.240055,-2.437627 5.74501,-5.743718l0.031451,-0.199204l-0.199188,-0.040195c-2.685543,-0.546933 -5.283732,0.332002 -6.319865,2.137078c-0.702401,1.219692 -0.499714,2.596636 0.553888,3.777889m-36.440978,1.840015c-0.036693,0.062907 -0.068143,0.118828 -0.108335,0.183477l-0.111821,-0.134554c0.0664,-0.026211 0.14677,-0.033196 0.220156,-0.048923m0.03495,0.35647l-0.108335,-0.127556c0.068143,-0.022712 0.139786,-0.041938 0.216657,-0.057664c-0.03495,0.059407 -0.068143,0.118828 -0.108335,0.18522m-2.416469,-2.395689c-0.019224,-0.092617 -0.031451,-0.190463 -0.036693,-0.288321c0.0664,0.068149 0.13803,0.13804 0.199188,0.202703l-0.162496,0.085618l0.000001,0zm-0.197445,0.108343c-0.024466,-0.099602 -0.038435,-0.204446 -0.045433,-0.30929c0.071642,0.073391 0.145027,0.148525 0.211415,0.21843l-0.165995,0.090861l0.000013,0l0,-0.000001zm1.935966,2.591394l0.569613,-0.214931c0.548646,-0.206189 1.474688,-0.090861 2.372791,0.020969c1.235321,0.155523 2.404242,0.300549 2.991324,-0.26211c0.263833,-0.249883 0.377409,-0.615081 0.340717,-1.08688l0,-0.01747l-0.005242,-0.015727l-0.113577,-0.470056c-0.948765,-3.989321 -2.388517,-10.016117 -5.870813,-11.237552c-1.586522,-0.557417 -3.433378,-0.031453 -5.486419,1.56742l-0.019224,0.015727l-0.017468,0.020969c-2.535287,3.255411 0.541648,6.346571 2.577222,8.391033c0.281314,0.27958 0.543404,0.54519 0.777529,0.791573l0.54689,0.581885l-0.188705,-0.775847c-0.253349,-1.0397 0.539905,-2.507519 1.453721,-3.325303c0.456036,-0.407149 0.89809,-0.602854 1.149697,-0.511993c0.207929,0.075134 0.290042,0.35647 0.323249,0.576643c0.447296,2.631589 0.244622,3.2327 -1.083309,5.427429l-0.318007,0.524221l0.000013,0l-0.000002,0zm13.670609,-6.079219c0.001743,0.001743 0.005242,0.003499 0.006985,0.003499l-0.010484,0.005242c0,-0.003499 0,-0.005242 0.003499,-0.008741m4.551623,-0.110086c0.012226,0.031453 0.024466,0.059407 0.038435,0.090861l-0.113577,-0.015727c0.024466,-0.02971 0.050675,-0.050679 0.075128,-0.075134m0.248107,0.043681c0.012226,0.027954 0.026209,0.054165 0.036693,0.083875l-0.103093,-0.015727c0.024466,-0.024468 0.047176,-0.043681 0.0664,-0.068149m-4.693152,0.359969l0.186962,0.07689l0.085612,-0.183477c0.78627,-1.707217 1.497411,-2.565183 2.115943,-2.552956c0.60455,0.012227 1.258031,0.868464 1.951692,2.544214l0.134544,0.328516l0.225397,-0.276094c0.508454,-0.629065 0.997684,-0.87195 2.091477,-1.037957l0.171236,-0.024468l0.010484,-0.169494c0.234138,-3.459858 -3.253414,-7.080481 -6.524295,-8.006595c-1.803178,-0.510237 -3.220207,-0.068149 -3.894656,1.21095c-0.461278,0.718183 -0.454294,2.06543 0.026209,3.587414c0.511953,1.633826 1.714068,3.793616 3.419395,4.503057m-17.878029,-24.530037c0.012226,-0.010484 0.019224,-0.022712 0.031451,-0.033196l0.005242,0.052422c-0.010484,-0.006985 -0.02271,-0.012227 -0.036693,-0.019226m-0.006985,-0.312789l0.010484,0.083875c-0.019224,-0.012227 -0.03495,-0.01747 -0.055917,-0.027954c0.015725,-0.019226 0.029708,-0.040195 0.045433,-0.055921m-4.757809,-0.07689c-2.563239,1.528982 -4.334967,5.371521 -4.210907,9.140669l0.005242,0.181734l0.18172,0.022712c4.623266,0.520722 5.82538,-2.407917 6.985574,-5.242209c0.557373,-1.359475 1.135727,-2.767886 2.094976,-3.728953l0.195689,-0.192219l-0.237624,-0.139797c-1.680874,-0.980293 -3.414153,-0.994277 -5.014658,-0.041938m-46.515713,0.174736l0.033194,0.045437c-0.015725,0 -0.029708,0 -0.047176,-0.001743c0.005242,-0.013984 0.008741,-0.026211 0.013982,-0.043681m0.157254,0.211431l0.036693,0.050679c-0.015725,-0.001743 -0.03495,0 -0.050675,0c0.003499,-0.01747 0.008741,-0.033196 0.013982,-0.050679m26.726184,47.712839l-0.104836,0.159009c-0.068143,-0.068149 -0.141529,-0.131055 -0.213171,-0.195705c0.117062,-0.005242 0.225397,0.005242 0.318007,0.036695m0.12406,-0.186976l-0.111821,0.167751c-0.08037,-0.078633 -0.167738,-0.150281 -0.251606,-0.230657c0.131045,0.003499 0.253349,0.019226 0.363427,0.062907m-12.527897,9.173865l-0.006985,-0.038438c0.017468,0.120571 0.087368,0.211431 0.192204,0.249883c0.40012,0.14154 1.272014,-0.618581 3.868447,-3.003785c2.813103,-2.586152 7.067686,-6.495096 8.315234,-5.988345l0.228896,-0.347729c-4.604041,-4.567707 -11.916349,-6.540533 -18.985791,-8.445198c-5.231314,-1.411897 -10.640849,-2.869231 -14.877965,-5.368022c-4.766537,-2.809824 -7.425885,-6.503838 -8.372894,-11.616734c-0.013982,0.024468 -0.026209,0.043681 -0.038435,0.06465l0.020967,-0.132798c0.003499,0.024468 0.013982,0.045437 0.017468,0.068149c1.775227,-3.393452 4.352435,-6.089703 6.847531,-8.696824c3.566165,-3.725467 7.254648,-7.57849 8.722351,-13.554608l0.061159,-0.251626l-0.258591,-0.010484c-2.280182,-0.097859 -4.120053,0.269096 -5.461953,1.092122l-0.024466,0.013984c-0.001743,0 -0.020967,0.020969 -0.020967,0.020969l-0.655225,0.68323c-6.477119,6.760706 -13.819122,14.426558 -13.525581,23.030765c0.158997,4.641098 2.505579,8.981646 7.158553,13.261045c0.024466,-0.045437 0.064644,-0.089118 0.089111,-0.134554l0.040191,0.26211c-0.045433,-0.043681 -0.085612,-0.085618 -0.129302,-0.127556c-0.564371,0.936612 -1.51488,1.901179 -2.530045,2.91991c-2.820087,2.832536 -6.017584,6.042523 -2.93715,10.53334l0.099594,0.145039l0.158997,-0.071648c2.019835,-0.912144 3.552196,-2.334526 5.035625,-3.709741c1.717567,-1.591888 3.49278,-3.236186 6.015841,-4.05397c-0.024466,-0.008741 -0.047176,-0.01747 -0.069886,-0.024468l0.132788,0c-0.02271,0.006985 -0.043677,0.01747 -0.062902,0.024468c8.645467,2.960105 18.812812,7.136389 20.953209,13.206866m20.273531,-16.988255c-0.001743,0.015727 -0.005242,0.033196 -0.008741,0.050679l-0.041934,-0.045437c0.017468,-0.001743 0.03495,-0.003499 0.050675,-0.005242m0.185206,0.18872c-0.001743,0.020969 -0.003499,0.041938 -0.008741,0.062907l-0.048919,-0.055921c0.019224,-0.001743 0.036693,-0.005242 0.05766,-0.006985m-17.96714,-45.572262l0.14677,-0.071648c0.003499,0.07689 0.015725,0.152024 0.02271,0.228914c-0.05766,-0.052422 -0.113577,-0.104844 -0.16948,-0.157266m-0.207929,0.101345l0.152012,-0.075134c0.005242,0.078633 0.019224,0.155523 0.026209,0.234156l-0.178221,-0.159009l0,-0.000013zm31.160745,36.450819l0.064644,0.14154c-0.0664,0.001743 -0.131045,0.005242 -0.193947,0.006985l0.129302,-0.148525l0.000001,0zm0.157254,0.351228c-0.0664,-0.001743 -0.127546,0.006985 -0.192204,0.012227c0.043677,-0.050679 0.089111,-0.101345 0.131045,-0.152024l0.061159,0.139797zm-13.614692,8.929224l0.272573,-0.022712c6.279674,-0.541691 9.461445,-4.261916 12.53838,-7.858071l0.964491,-1.121833l0.298782,-0.345986c0.001743,0 -0.456036,-0.005242 -0.456036,-0.005242c-1.13747,-0.010484 -1.92374,0.337244 -2.685543,0.672746c-1.020408,0.45083 -1.991883,0.87195 -3.810787,0.473542c0.006985,0.050679 0.015725,0.099602 0.024466,0.153767l-0.162496,-0.179978c0.050675,0.010484 0.090853,0.015727 0.13803,0.026211c-2.315132,-17.716922 -12.983933,-27.380055 -23.305033,-36.719928l-1.237064,-1.118333l-0.387893,-0.352971l0.036693,0.524221c0.463021,6.440931 4.254597,11.129209 8.268058,16.090081c2.91444,3.601397 5.928473,7.325108 7.906374,11.985432c2.239991,5.278904 2.779896,11.012137 1.644182,17.529945l-0.047176,0.269096l0,0.000013l-0.000001,0zm-32.163671,-39.395197c0.013982,0.019226 0.026209,0.040195 0.040191,0.059407l-0.083869,0.003499c0.015725,-0.019226 0.029708,-0.041938 0.043677,-0.062907m0.256848,0.001743c0.008741,0.015727 0.019224,0.034952 0.031451,0.048923l-0.068143,0.001743c0.012226,-0.015727 0.024466,-0.033196 0.036693,-0.050679m26.495545,-3.202989l-0.110078,0.087375c-0.006985,-0.052422 -0.020967,-0.103101 -0.031451,-0.153767c0.045433,0.020969 0.092609,0.04718 0.141529,0.066406m0.179964,-0.148525l-0.104836,0.087375c-0.008741,-0.050679 -0.02271,-0.101345 -0.03495,-0.152024c0.047176,0.022712 0.096095,0.04718 0.139786,0.06465m-26.792571,3.879234l0.160753,-0.216674c0.992443,-1.364717 1.920241,-2.993301 2.903956,-4.717988c2.353567,-4.134359 4.78926,-8.410246 8.067127,-8.558783l0.019224,0l0.019224,-0.005242c1.476444,-0.340744 4.160245,1.864483 6.999543,4.200752c2.627884,2.165032 5.610467,4.618386 8.462004,5.81011l0.361684,0.152024l-0.073385,-0.387923c-1.149697,-6.02854 -5.591255,-11.193858 -11.3118,-13.1562c-5.133463,-1.759639 -10.46787,-0.660518 -14.647326,3.016013l-0.013982,0.012227l-0.008741,0.013984c-0.927798,1.139302 -1.834629,3.807586 -2.205054,6.491597c-0.256848,1.881953 -0.461278,5.315599 1.093793,7.141631l0.172979,0.204446l0,0.000026l0.000001,0zm46.947284,-23.64236c0,0.005242 -0.005242,0.010484 -0.005242,0.01747c-0.008741,-0.003499 -0.012226,-0.006985 -0.013982,-0.008741l0.019224,-0.008741l0,0.000013l0,-0.000001zm36.402543,45.525082l-0.062902,0.048923c0,-0.024468 -0.003499,-0.045437 -0.003499,-0.069892c0.024466,0.006985 0.045433,0.015727 0.0664,0.020969m0.202687,-0.157266l-0.061159,0.048923c0,-0.024468 -0.001743,-0.04718 -0.001743,-0.069892c0.02271,0.006985 0.041934,0.013984 0.062902,0.020969m-47.02941,-27.456945l0.174722,0.031453c2.257472,0.389666 4.796245,0.655276 7.485287,0.936612c9.456203,0.987278 21.224039,2.217454 28.019152,10.127947c1.92374,2.23668 2.73272,4.885738 3.513747,7.449178c1.231822,4.036501 2.397244,7.849329 7.72641,9.318904l0.269075,0.075134l-0.001743,-0.281336c-0.125803,-11.167647 -4.382143,-19.205709 -13.010142,-24.568488c-7.492272,-4.65858 -17.177371,-6.842825 -28.141469,-9.000872c-0.013982,0.06465 -0.038435,0.132798 -0.048919,0.195705l-0.165995,-0.234156l0,-0.003499c0.071642,0.013984 0.141529,0.027954 0.214914,0.041938c0.293541,-1.355989 1.647667,-2.988059 2.970356,-4.569463c1.775227,-2.123094 3.450846,-4.129117 3.08392,-5.822351c-0.167738,-0.77759 -0.747834,-1.394427 -1.766486,-1.883696l-0.199188,-0.09436l-0.085612,0.202703c-1.044861,2.430642 -2.769412,4.258416 -4.439803,6.026797c-2.778153,2.942622 -5.650658,5.984859 -5.601739,11.875345l0.003499,0.176492l0.000013,0.000013l0.000001,0zm-4.399611,-0.361712c0.026209,0.02971 0.048919,0.061163 0.078627,0.090861l-0.12406,0.027954c0.010484,-0.038438 0.029708,-0.080376 0.045433,-0.118828m0.237624,-0.045437c0.024466,0.02971 0.047176,0.057664 0.075128,0.085618l-0.113577,0.024468c0.012226,-0.036695 0.024466,-0.073391 0.038435,-0.110086m8.752059,-18.574888c-0.015725,0.024468 -0.031451,0.050679 -0.047176,0.075134c-0.015725,-0.022712 -0.024466,-0.045437 -0.040191,-0.066406l0.087368,-0.008741l0,0.000013l-0.000001,0zm0.258591,-0.026211c-0.013982,0.02971 -0.036693,0.061163 -0.054161,0.090861c-0.017468,-0.026211 -0.03495,-0.054165 -0.055917,-0.080376l0.110078,-0.010484l0,-0.000001zm-9.003666,19.238905l0.111821,-0.344243c0.749577,-2.329284 2.736218,-5.22124 4.656459,-8.01708c3.12761,-4.555479 6.080485,-8.859332 4.212663,-11.111739l-0.199188,-0.242885l-0.148513,0.277837c-0.819463,1.525483 -2.599932,3.143582 -4.48348,4.856028c-3.000051,2.725948 -6.405477,5.815352 -6.55399,9.283951c-0.078627,1.728186 0.630759,3.374239 2.159621,5.03252l0.244622,0.26561l-0.000013,0l-0.000002,0.000001zm24.681883,-7.284927c-0.020967,0.082132 -0.047176,0.164251 -0.071642,0.248127l-0.13803,-0.099602c0.071642,-0.04718 0.139786,-0.099602 0.209672,-0.148525m-0.391392,0.019226c0.071642,-0.04718 0.141529,-0.101345 0.211415,-0.152024c-0.024466,0.083875 -0.048919,0.164251 -0.071642,0.249883l-0.139786,-0.097859l0.000013,0zm12.451013,6.825356l0.003499,-0.159009c0.062902,0.027954 0.120561,0.059407 0.179964,0.090861c-0.062902,0.024468 -0.120561,0.041938 -0.183463,0.068149m-0.001743,0.227158l0.001743,-0.152024c0.05766,0.026211 0.111821,0.057664 0.171236,0.087375c-0.059403,0.019226 -0.11532,0.038438 -0.172979,0.06465m16.420809,-4.735457c0.005242,0.003499 0.012226,0.005242 0.017468,0.008741l-0.02271,0.008741c0.003499,-0.005242 0.003499,-0.010484 0.005242,-0.01747m0.237624,-0.127556c0.010484,0.005242 0.024466,0.010484 0.03495,0.015727l-0.040191,0.019226c0.001743,-0.012227 0.003499,-0.022712 0.005242,-0.034952m-24.874073,-5.207256c2.975598,-2.830793 5.790444,-5.50082 11.407895,-5.502576c-0.015725,-0.008741 -0.029708,-0.020969 -0.045433,-0.031453l0.108335,0.031453c-0.02271,0 -0.040191,0 -0.062902,0c2.154379,1.319294 3.850978,3.169793 5.491661,4.960872c2.191071,2.393946 4.457271,4.870012 7.859198,6.159595l0.206173,0.078633l0.068143,-0.207945c0.298782,-0.885933 -0.197445,-1.822546 -0.674449,-2.729448c-0.401876,-0.758377 -0.777529,-1.478303 -0.566114,-1.979812c0.120561,-0.283079 0.440311,-0.501509 0.954007,-0.672746c-0.029708,-0.050679 -0.064644,-0.096103 -0.096095,-0.145039l0.242866,0.09436c-0.054161,0.015727 -0.096095,0.034952 -0.14677,0.050679c2.103704,3.466843 5.268007,5.935923 8.332716,8.317642c3.59413,2.794097 7.296582,5.689539 9.255272,10.194353c0.073385,-0.013984 0.145027,-0.022712 0.220156,-0.034952c0.006985,0.01747 0.017468,0.033196 0.02271,0.050679l-0.096095,0.176492c-0.017468,0.001743 -0.031451,0.003499 -0.048919,0.006985c-0.033194,-0.066406 -0.0664,-0.131055 -0.097851,-0.199204c-8.414828,1.532468 -14.575697,-2.156291 -20.014927,-5.423943c-5.014658,-3.01427 -9.347868,-5.616148 -14.271672,-3.514023l-0.435069,0.18522l0.428085,0.200947c4.043169,1.892437 7.043233,4.952144 9.941947,7.90875c1.427512,1.453835 2.902213,2.956606 4.485236,4.309095l0.104836,0.090861l0.12406,-0.061163c4.142763,-1.979812 8.46376,-1.396171 12.643216,-0.833511c5.3711,0.723425 10.44516,1.406655 14.158096,-3.687016l0.094352,-0.129312l-0.096095,-0.125813c-3.623825,-4.614887 -10.85402,-12.17765 -19.312526,-18.302293c-6.632617,-4.805362 -16.137752,-10.203081 -23.755827,-8.625176c-5.231314,1.083394 -8.848155,5.29813 -10.747428,12.528878l-0.143271,0.536448l0.464777,-0.307547c1.47993,-0.980293 2.758929,-2.194742 3.997749,-3.368997" fill-rule="evenodd" fill="#000000" stroke="null"/>
  </g>
  <g class="sprite" id="g2">
    <path id="path96" d="m59.954875,52.5121l4.513846,-9.898274l-21.366962,0l3.786496,6.830736l-25.480766,16.740052l-17.415743,-31.40637c-2.674079,-4.818838 -2.652687,-10.741902 0.047064,-15.547489c2.697611,-4.803379 7.669259,-7.762702 13.047367,-7.762702l47.611445,0l-4.776975,-10.454803l23.339363,-0.013251l11.956343,25.741695l-11.919975,25.761571l-23.341503,0.008834l0,0.000001zm3.762964,7.248133l11.770227,20.805809l-10.80328,0.984969l11.41297,20.589381l6.028444,-10.836865l26.246622,15.359771l-19.214864,34.551203c-2.691193,4.840923 -7.684234,7.82233 -13.090153,7.813497c-5.408058,0 -10.401098,-2.988033 -13.085874,-7.833373l-24.372627,-43.965826l-6.199585,9.317451l-11.768088,-20.805809l15.513938,-23.630417l27.562269,-2.349791l0.000001,0zm84.618562,-24.966529l-22.727534,40.876204l11.686796,1.179312l-11.962761,20.690969l-27.534459,-2.612597l-15.30429,-23.771757l11.960621,-20.699803l5.60487,8.595288l9.141072,-16.437494l-8.563471,0l0,-31.145772l34.619699,0c5.380247,0 10.356174,2.959323 13.055924,7.769328c2.697611,4.812213 2.708307,10.737485 0.023532,15.556323" fill-rule="nonzero" fill="#000000" stroke="null"/>
  </g>
</svg>